<?xml version="1.0" standalone="no"?>
<!DOCTYPE svg PUBLIC "-//W3C//DTD SVG 20010904//EN"
 "http://www.w3.org/TR/2001/REC-SVG-20010904/DTD/svg10.dtd">
<svg version="1.0" xmlns="http://www.w3.org/2000/svg"
 width="300.000000pt" height="300.000000pt" viewBox="0 0 300.000000 300.000000"
 preserveAspectRatio="xMidYMid meet">
<metadata>
Created by potrace 1.10, written by Peter Selinger 2001-2011
</metadata>
<g transform="translate(0.000000,300.000000) scale(0.100000,-0.100000)"
fill="#000000" stroke="none">
<path d="M1310 1663 c104 -142 233 -318 287 -391 123 -168 127 -172 197 -179
31 -3 56 -3 56 0 0 3 -42 61 -92 129 -51 68 -140 189 -198 267 -339 462 -310
431 -397 431 l-42 0 189 -257z m-81 213 c29 -16 59 -46 45 -46 -5 0 -19 -3
-31 -6 -17 -5 -25 1 -37 25 -25 47 -22 50 23 27z m61 -84 c51 -61 95 -119 157
-207 63 -89 187 -258 272 -370 35 -48 47 -75 32 -75 -6 0 -30 26 -53 57 -24
32 -47 62 -51 68 -4 5 -25 35 -47 65 -22 30 -43 60 -47 65 -5 6 -44 60 -88
120 -43 61 -100 136 -127 167 -26 31 -48 61 -48 66 0 5 -7 15 -15 22 -16 13
-21 40 -7 40 4 0 14 -8 22 -18z"/>
<path d="M1734 1907 c-22 -12 -64 -63 -147 -177 -25 -36 -55 -76 -66 -90 l-19
-25 32 -38 32 -39 134 179 c73 98 137 180 142 181 4 2 8 8 8 13 0 13 -91 10
-116 -4z m28 -52 c-3 -20 -10 -25 -33 -25 -37 0 -37 15 -1 34 37 21 40 20 34
-9z m-42 -42 c0 -3 -22 -37 -50 -75 -27 -38 -50 -70 -50 -73 0 -7 -47 -55 -54
-55 -14 0 -4 24 27 68 17 26 37 52 42 58 6 6 23 28 40 48 28 34 45 45 45 29z"/>
<path d="M762 1691 l-134 -6 -29 -33 -29 -32 0 -158 0 -157 40 -1 40 -1 0 68
0 69 104 0 103 0 -1 40 -1 40 -102 0 -103 0 0 33 c0 55 6 57 133 58 l117 0 0
45 c0 24 -1 43 -2 42 -2 -1 -63 -4 -136 -7z m-24 -31 c7 0 10 -4 7 -10 -9 -14
-45 -12 -45 3 0 7 -3 8 -8 2 -4 -5 -16 -15 -27 -21 -26 -15 -53 -65 -47 -88 8
-29 34 -56 54 -56 27 0 21 -13 -14 -31 -22 -10 -35 -26 -41 -48 -4 -18 -10
-31 -13 -28 -11 10 -6 215 6 237 14 26 67 52 95 45 11 -3 26 -5 33 -5z m90 -6
c2 -7 -13 -9 -48 -5 -5 1 -10 4 -10 9 0 10 54 7 58 -4z"/>
<path d="M947 1503 c-48 -104 -87 -190 -87 -193 0 -4 18 -6 40 -5 l39 0 45 95
c24 52 55 120 69 150 l24 55 37 -79 c20 -43 36 -81 36 -84 0 -2 -22 -2 -49 0
-60 6 -80 -14 -50 -53 16 -21 24 -24 77 -21 59 4 60 3 70 -27 13 -38 45 -41
67 -8 14 23 11 32 -65 190 l-80 167 -43 0 -44 0 -86 -187z m143 146 c0 -5 5
-7 10 -4 6 3 10 2 10 -4 0 -5 3 -17 7 -26 5 -15 3 -16 -16 -5 -18 9 -27 8 -48
-5 -14 -10 -24 -13 -21 -9 26 54 33 64 45 64 7 0 13 -5 13 -11z m128 -264 c-3
-3 -21 2 -42 10 l-36 15 22 31 23 30 19 -40 c11 -22 17 -43 14 -46z"/>
<path d="M1704 1668 c-49 -56 -52 -53 74 -50 67 2 129 -1 144 -7 35 -13 46
-52 24 -86 -16 -24 -20 -25 -134 -25 l-117 0 3 -79 c4 -84 13 -101 60 -116 23
-7 23 -5 21 54 -1 33 1 61 4 61 98 1 92 3 130 -54 33 -50 38 -54 84 -59 26 -3
49 -4 51 -2 2 2 -18 30 -44 64 l-47 60 32 26 c61 52 64 150 5 206 -24 22 -34
24 -147 27 -117 3 -123 3 -143 -20z m236 -223 c-14 -17 -40 -20 -40 -5 0 6 0
13 -1 18 0 10 45 20 49 10 2 -5 -2 -15 -8 -23z"/>
<path d="M2102 1677 c-7 -8 -12 -80 -12 -191 l-2 -178 41 -2 41 -2 -1 115 c0
119 -8 166 -24 142 -6 -11 -9 -11 -16 0 -14 22 -10 65 6 79 12 10 19 8 35 -11
11 -13 25 -31 30 -41 8 -13 6 -15 -10 -11 -28 7 -26 0 20 -65 138 -198 137
-197 180 -203 l40 -5 0 193 0 193 -30 0 c-42 0 -51 -25 -50 -138 1 -53 1 -101
1 -106 -1 -5 -40 48 -88 117 -81 116 -91 127 -119 127 -17 0 -36 -6 -42 -13z
m298 -273 c0 -47 -3 -55 -17 -52 -18 3 -67 68 -58 77 3 2 13 6 22 7 9 2 20 10
25 19 16 28 28 5 28 -51z"/>
<path d="M1400 1473 c0 -5 -63 -91 -139 -193 l-139 -185 44 -3 c24 -2 55 3 70
11 15 8 73 77 130 153 l102 139 -31 42 c-31 43 -37 49 -37 36z m13 -86 c-33
-58 -177 -237 -190 -237 -15 0 -15 2 0 18 10 10 17 21 17 24 0 4 9 17 20 30
10 12 47 60 80 106 34 45 66 80 71 76 5 -3 6 -11 2 -17z"/>
<path d="M1241 873 c1 -27 4 -38 6 -26 3 14 13 23 31 26 l27 4 -27 2 c-19 0
-28 7 -28 17 0 12 7 15 25 12 14 -3 28 -1 31 3 3 5 -11 9 -30 9 l-36 0 1 -47z"/>
<path d="M1327 913 c-11 -11 -8 -58 5 -71 33 -33 91 16 68 57 -10 20 -58 30
-73 14z m47 -9 c20 -8 21 -38 1 -54 -12 -10 -18 -10 -30 0 -18 15 -20 46 -2
53 6 3 13 6 14 6 1 1 8 -2 17 -5z"/>
<path d="M1420 875 c0 -25 5 -45 10 -45 6 0 10 9 10 20 0 11 4 20 10 20 5 0
14 -9 20 -20 6 -11 16 -20 22 -20 9 0 9 3 1 11 -6 6 -9 26 -6 45 6 33 5 34
-31 34 l-36 0 0 -45z m58 18 c2 -8 -5 -13 -17 -13 -12 0 -21 6 -21 16 0 18 31
15 38 -3z"/>
<path d="M1510 887 c0 -52 32 -73 64 -41 18 17 22 74 6 74 -5 0 -10 -16 -10
-35 0 -28 -4 -35 -20 -35 -16 0 -20 7 -20 35 0 19 -4 35 -10 35 -5 0 -10 -15
-10 -33z"/>
<path d="M1612 873 c1 -39 2 -42 5 -14 4 33 5 33 20 12 14 -21 16 -21 29 -4
13 17 13 17 14 -4 0 -12 5 -25 10 -28 6 -4 10 12 10 39 0 52 -13 59 -34 19
l-14 -28 -13 28 c-18 41 -29 33 -27 -20z"/>
<path d="M1720 900 c0 -13 10 -24 26 -30 32 -13 22 -32 -14 -25 -26 5 -26 5
-5 -6 12 -6 29 -9 37 -6 24 9 19 36 -9 49 -29 13 -23 32 7 22 14 -4 18 -2 14
5 -4 6 -18 11 -32 11 -17 0 -24 -5 -24 -20z"/>
</g>
</svg>
